<svg id="Capa_1" enable-background="new 0 0 512 512" height="512" viewBox="0 0 512 512" width="512" xmlns="http://www.w3.org/2000/svg" xmlns:xlink="http://www.w3.org/1999/xlink"><linearGradient id="SVGID_1_" gradientUnits="userSpaceOnUse" x1="256" x2="256" y1="512" y2="0"><stop offset="0" stop-color="#ffbef9"/><stop offset="1" stop-color="#fff1ff"/></linearGradient><linearGradient id="SVGID_2_" gradientUnits="userSpaceOnUse" x1="256" x2="256" y1="105" y2="407"><stop offset="0" stop-color="#a93aff"/><stop offset="1" stop-color="#ff81ff"/></linearGradient><g><g><circle cx="256" cy="256" fill="url(#SVGID_1_)" r="256"/></g><g><g><path d="m158.294 140.529h17.765c4.91 0 8.882-3.973 8.882-8.882v-17.765c0-4.91-3.973-8.882-8.882-8.882h-17.765c-4.91 0-8.882 3.973-8.882 8.882v17.765c0 4.91 3.973 8.882 8.882 8.882zm142.118 0h17.765c4.91 0 8.882-3.973 8.882-8.882v-17.765c0-4.91-3.973-8.882-8.882-8.882h-17.765c-4.91 0-8.882 3.973-8.882 8.882v17.765c-.001 4.91 3.972 8.882 8.882 8.882zm71.059-8.882c0-4.906-3.977-8.882-8.882-8.882h-17.765v8.882c0 14.694-11.953 26.647-26.647 26.647h-17.765c-14.694 0-26.647-11.953-26.647-26.647v-8.882h-71.059v8.882c0 14.694-11.953 26.647-26.647 26.647h-17.765c-14.694 0-26.647-11.953-26.647-26.647v-8.882h-17.765c-4.905 0-8.882 3.976-8.882 8.882v44.412h266.471zm-17.765 151c6.17 0 12.053 1.039 17.765 2.523v-91.347h-266.471v133.235c0 4.905 3.977 8.882 8.882 8.882h171.288c7.946-30.559 35.524-53.293 68.536-53.293zm-186.53 26.647h-17.765c-4.91 0-8.882-3.973-8.882-8.883 0-4.909 3.973-8.882 8.882-8.882h17.765c4.91 0 8.882 3.973 8.882 8.882.001 4.91-3.972 8.883-8.882 8.883zm0-35.529h-17.765c-4.91 0-8.882-3.973-8.882-8.882s3.973-8.882 8.882-8.882h17.765c4.91 0 8.882 3.973 8.882 8.882s-3.972 8.882-8.882 8.882zm53.295 35.529h-17.765c-4.91 0-8.882-3.973-8.882-8.883 0-4.909 3.973-8.882 8.882-8.882h17.765c4.91 0 8.882 3.973 8.882 8.882 0 4.91-3.973 8.883-8.882 8.883zm0-35.529h-17.765c-4.91 0-8.882-3.973-8.882-8.882s3.973-8.882 8.882-8.882h17.765c4.91 0 8.882 3.973 8.882 8.882s-3.973 8.882-8.882 8.882zm0-35.53h-17.765c-4.91 0-8.882-3.973-8.882-8.882 0-4.91 3.973-8.882 8.882-8.882h17.765c4.91 0 8.882 3.973 8.882 8.882s-3.973 8.882-8.882 8.882zm53.294 71.059h-17.765c-4.91 0-8.882-3.973-8.882-8.883 0-4.909 3.973-8.882 8.882-8.882h17.765c4.91 0 8.882 3.973 8.882 8.882 0 4.91-3.973 8.883-8.882 8.883zm0-35.529h-17.765c-4.91 0-8.882-3.973-8.882-8.882s3.972-8.883 8.882-8.883h17.765c4.91 0 8.882 3.973 8.882 8.882s-3.973 8.883-8.882 8.883zm0-35.53h-17.765c-4.91 0-8.882-3.973-8.882-8.882 0-4.91 3.973-8.882 8.882-8.882h17.765c4.91 0 8.882 3.973 8.882 8.882s-3.973 8.882-8.882 8.882zm35.529-17.764h17.765c4.91 0 8.882 3.973 8.882 8.882s-3.973 8.882-8.882 8.882h-17.765c-4.91 0-8.882-3.973-8.882-8.882 0-4.91 3.973-8.882 8.882-8.882zm-8.882 44.411c0-4.91 3.973-8.882 8.882-8.882h17.765c4.91 0 8.882 3.973 8.882 8.882s-3.973 8.882-8.882 8.882h-17.765c-4.909.001-8.882-3.972-8.882-8.882zm53.294 35.53c-29.434 0-53.294 23.861-53.294 53.294 0 29.434 23.86 53.294 53.294 53.294s53.294-23.86 53.294-53.294-23.86-53.294-53.294-53.294zm25.71 39.502-17.765 35.529c-1.252 2.48-4.774 4.91-7.946 4.91-.002 0-.003-.001-.005-.001-.001 0-.002.001-.003.001-.014 0-.026-.01-.04-.01-1.826-.012-3.953-.316-6.231-2.593l-17.765-17.765c-3.47-3.469-3.47-9.09 0-12.56s9.091-3.47 12.56 0l9.05 9.05 12.253-24.508c2.212-4.389 7.529-6.158 11.918-3.973 4.391 2.196 6.169 7.531 3.974 11.92z" fill="url(#SVGID_2_)"/></g></g></g></svg>